<svg width="350" height="390" viewBox="0 0 350 390" fill="none" xmlns="http://www.w3.org/2000/svg">
<path d="M140.5 261L175.5 279.5L212 261V279.5L183 294.199V390.5H168V294.036L140.5 279.5V261Z" fill="#323232"/>
<path d="M68 144C68 88.7715 112.772 44 168 44H181C236.228 44 281 88.7715 281 144V346H68V144Z" fill="#723A16"/>
<rect x="141" y="185" width="68.2139" height="128.131" rx="13.7769" fill="#FFDFD6" stroke="#323232" stroke-width="4" stroke-linecap="round"/>
<path d="M142.896 267.634V226.678H211.5C206.333 247.68 175.523 268.768 142.896 267.634Z" fill="#7E7E7E" fill-opacity="0.45"/>
<path d="M132 184.5C132 196.189 121.45 206 108 206C94.5501 206 84 196.189 84 184.5C84 172.811 94.5501 163 108 163C121.45 163 132 172.811 132 184.5Z" fill="#FFDFD6" stroke="#323232" stroke-width="4"/>
<path d="M219 184.5C219 196.189 229.55 206 243 206C256.45 206 267 196.189 267 184.5C267 172.811 256.45 163 243 163C229.55 163 219 172.811 219 184.5Z" fill="#FFDFD6" stroke="#323232" stroke-width="4"/>
<path d="M242 174.261C242 196.713 236.042 213.834 224.986 225.337C213.941 236.828 197.532 243 176.03 243C154.526 243 137.842 236.827 126.529 225.321C115.211 213.81 109 196.69 109 174.261C109 151.804 115.232 128.379 126.779 110.629C138.311 92.9028 155.009 81 176.03 81C197.043 81 213.472 92.8934 224.74 110.612C236.025 128.358 242 151.787 242 174.261Z" fill="#FFDFD6" stroke="#323232" stroke-width="4" stroke-linecap="round"/>
<path d="M176 173C174.029 179.812 173 183.371 173 190.458C175.64 191.72 178.163 192.036 182.5 192" stroke="#323232" stroke-width="4" stroke-linecap="round" stroke-linejoin="round"/>
<path d="M140.768 184.225C142.829 184.225 144.657 183.11 145.953 181.382C147.249 179.655 148.035 177.291 148.035 174.702C148.035 172.112 147.249 169.748 145.953 168.021C144.657 166.293 142.829 165.178 140.768 165.178C138.706 165.178 136.878 166.293 135.582 168.021C134.287 169.748 133.5 172.112 133.5 174.702C133.5 177.291 134.287 179.655 135.582 181.382C136.878 183.11 138.706 184.225 140.768 184.225Z" fill="#323232" stroke="#323232" stroke-linecap="round"/>
<circle cx="143.616" cy="172.487" r="2.5" fill="white" stroke="#323232"/>
<path d="M212.768 184.225C214.829 184.225 216.657 183.11 217.953 181.382C219.249 179.655 220.035 177.291 220.035 174.702C220.035 172.112 219.249 169.748 217.953 168.021C216.657 166.293 214.829 165.178 212.768 165.178C210.706 165.178 208.878 166.293 207.582 168.021C206.287 169.748 205.5 172.112 205.5 174.702C205.5 177.291 206.287 179.655 207.582 181.382C208.878 183.11 210.706 184.225 212.768 184.225Z" fill="#323232" stroke="#323232" stroke-linecap="round"/>
<circle cx="215.616" cy="172.487" r="2" fill="white"/>
<path d="M168 207.5C171 211.167 178.8 216.3 186 207.5" stroke="#323232" stroke-width="4" stroke-linecap="round" stroke-linejoin="round"/>
<g filter="url(#filter0_f_203_1054)">
<ellipse cx="136.5" cy="202.5" rx="9.5" ry="5.5" fill="#FC9D80"/>
</g>
<g filter="url(#filter1_f_203_1054)">
<ellipse cx="215.5" cy="202.5" rx="9.5" ry="5.5" fill="#FC9D80"/>
</g>
<path d="M206.838 117.678C178.838 157.678 153.136 160.762 106 165C114.748 103.794 110.5 82 182.5 79C240 82.5 238.619 113.613 240 165C222.838 155.678 219.182 149.481 206.838 117.678Z" fill="#723A16"/>
<path d="M142.637 278.566C158.781 306.54 197.874 304.35 210.064 278.821C210.396 278.127 211.144 277.922 211.623 278.139C238.582 290.357 256.284 303.353 268.373 320.321C280.476 337.308 287.102 358.482 291.512 387.356C291.604 387.958 291.132 388.5 290.538 388.5H60.4712C59.8781 388.5 59.4054 387.956 59.5001 387.354C64.2635 357.036 72.0978 335.611 84.931 318.851C97.765 302.091 115.747 289.803 141.18 278.032C141.637 277.82 142.303 277.988 142.637 278.566Z" fill="#0D7A5A" stroke="#323232" stroke-width="4" stroke-linecap="round" stroke-linejoin="round"/>
<path d="M142 278.678C142 278.678 113.338 311.678 138.338 325.178C163.338 338.678 177.5 298.678 177.5 298.678" stroke="#323232" stroke-width="4" stroke-linecap="round" stroke-linejoin="round"/>
<path d="M212.338 281.178C212.338 281.178 241 314.178 216 327.678C191 341.178 176.838 301.178 176.838 301.178" stroke="#323232" stroke-width="4" stroke-linecap="round" stroke-linejoin="round"/>
<rect x="250" y="194" width="2" height="14" rx="1" fill="#0D7A5A"/>
<rect x="250" y="211" width="2" height="9" rx="1" fill="#0D7A5A"/>
<path d="M245.517 236.513C243.779 235.512 243.184 233.293 244.187 231.557L244.723 230.63H243.633C241.626 230.63 240 229.006 240 227.002C240 224.999 241.626 223.374 243.633 223.374H244.726L244.187 222.443C243.184 220.707 243.779 218.488 245.517 217.487C247.254 216.485 249.476 217.079 250.479 218.815L251.017 219.744L251.554 218.815C252.557 217.079 254.779 216.485 256.517 217.487C258.254 218.488 258.849 220.707 257.846 222.443L257.308 223.374H258.367C260.374 223.374 262 224.999 262 227.002C262 229.006 260.374 230.63 258.367 230.63H257.31L257.846 231.557C258.849 233.293 258.254 235.512 256.517 236.513C254.779 237.515 252.557 236.921 251.554 235.185L251.017 234.256L250.479 235.185C249.476 236.921 247.254 237.515 245.517 236.513Z" fill="#0D7A5A"/>
<circle cx="251" cy="195" r="3" fill="#0D7A5A"/>
<rect x="100" y="194" width="2" height="14" rx="1" fill="#0D7A5A"/>
<rect x="100" y="211" width="2" height="9" rx="1" fill="#0D7A5A"/>
<path d="M95.5166 236.513C93.779 235.512 93.1837 233.293 94.1868 231.557L94.723 230.63H93.6329C91.6265 230.63 90 229.006 90 227.002C90 224.999 91.6265 223.374 93.6329 223.374H94.7255L94.1868 222.443C93.1837 220.707 93.779 218.488 95.5166 217.487C97.2541 216.485 99.476 217.079 100.479 218.815L101.017 219.744L101.554 218.815C102.557 217.079 104.779 216.485 106.517 217.487C108.254 218.488 108.849 220.707 107.846 222.443L107.308 223.374H108.367C110.374 223.374 112 224.999 112 227.002C112 229.006 110.374 230.63 108.367 230.63H107.31L107.846 231.557C108.849 233.293 108.254 235.512 106.517 236.513C104.779 237.515 102.557 236.921 101.554 235.185L101.017 234.256L100.479 235.185C99.476 236.921 97.2541 237.515 95.5166 236.513Z" fill="#0D7A5A"/>
<circle cx="101" cy="195" r="3" fill="#0D7A5A"/>
<path fill-rule="evenodd" clip-rule="evenodd" d="M203.418 77.6601L183.498 50.0642C181.759 47.6554 178.094 47.9157 176.713 50.5461L158.862 84.5491C157.481 87.1795 159.348 90.3442 162.318 90.4075L196.345 91.1332L216.265 118.729C218.004 121.138 221.669 120.878 223.05 118.247L240.901 84.2442C242.282 81.6138 240.415 78.4492 237.445 78.3858L203.418 77.6601Z" fill="#0D7A5A"/>
<defs>
<filter id="filter0_f_203_1054" x="115" y="185" width="43" height="35" filterUnits="userSpaceOnUse" color-interpolation-filters="sRGB">
<feFlood flood-opacity="0" result="BackgroundImageFix"/>
<feBlend mode="normal" in="SourceGraphic" in2="BackgroundImageFix" result="shape"/>
<feGaussianBlur stdDeviation="6" result="effect1_foregroundBlur_203_1054"/>
</filter>
<filter id="filter1_f_203_1054" x="194" y="185" width="43" height="35" filterUnits="userSpaceOnUse" color-interpolation-filters="sRGB">
<feFlood flood-opacity="0" result="BackgroundImageFix"/>
<feBlend mode="normal" in="SourceGraphic" in2="BackgroundImageFix" result="shape"/>
<feGaussianBlur stdDeviation="6" result="effect1_foregroundBlur_203_1054"/>
</filter>
</defs>
</svg>
