<svg width="350" height="390" viewBox="0 0 350 390" fill="none" xmlns="http://www.w3.org/2000/svg">
<path d="M141.637 277.566C157.781 305.54 196.874 303.35 209.064 277.821C209.396 277.127 210.144 276.922 210.623 277.139C237.582 289.357 255.284 302.353 267.373 319.321C279.476 336.308 286.102 357.482 290.512 386.356C290.604 386.958 290.132 387.5 289.538 387.5H59.4712C58.8781 387.5 58.4054 386.956 58.5001 386.354C63.2635 356.036 71.0978 334.611 83.931 317.851C96.765 301.091 114.747 288.803 140.18 277.032C140.637 276.82 141.303 276.988 141.637 277.566Z" fill="#6DA5FB" stroke="#134B9F" stroke-width="4" stroke-linecap="round" stroke-linejoin="round"/>
<path d="M139 277.5L140.436 321.052C140.463 321.866 141.399 322.308 142.045 321.812L173 298" stroke="#134B9F" stroke-width="4" stroke-linecap="round"/>
<path d="M211 277.5L209.564 321.052C209.537 321.866 208.601 322.308 207.955 321.812L177 298" stroke="#134B9F" stroke-width="4" stroke-linecap="round"/>
<line x1="175" y1="298.477" x2="176.011" y2="385.477" stroke="#134B9F" stroke-width="4"/>
<circle cx="189" cy="333.5" r="6" fill="#134B9F"/>
<circle cx="189" cy="363.5" r="6" fill="#134B9F"/>
<path d="M142.896 267.634V226.678H211.5C206.333 247.68 175.523 268.768 142.896 267.634Z" fill="#7E7E7E" fill-opacity="0.45"/>
<path d="M134 178.178C134 189.867 123.45 199.678 110 199.678C96.5501 199.678 86 189.867 86 178.178C86 166.489 96.5501 156.678 110 156.678C123.45 156.678 134 166.489 134 178.178Z" fill="#FFEDED" stroke="#323232" stroke-width="4"/>
<path d="M217 178.178C217 189.867 227.55 199.678 241 199.678C254.45 199.678 265 189.867 265 178.178C265 166.489 254.45 156.678 241 156.678C227.55 156.678 217 166.489 217 178.178Z" fill="#FFEDED" stroke="#323232" stroke-width="4"/>
<path d="M242 171.261C242 193.713 236.042 210.834 224.986 222.337C213.941 233.828 197.532 240 176.03 240C154.526 240 137.842 233.827 126.529 222.321C115.211 210.81 109 193.69 109 171.261C109 148.835 115.207 132.753 126.467 122.251C137.752 111.726 154.439 106.5 176.03 106.5C197.621 106.5 214.032 111.726 225.047 122.236C236.045 132.729 242 148.812 242 171.261Z" fill="#FFEDED" stroke="#323232" stroke-width="4" stroke-linecap="round"/>
<path d="M176 187C174.029 193.812 173 197.371 173 204.458C175.64 205.72 178.163 206.036 182.5 206" stroke="#323232" stroke-width="4" stroke-linecap="round" stroke-linejoin="round"/>
<path d="M140.768 200.225C142.829 200.225 144.657 199.11 145.953 197.382C147.249 195.655 148.035 193.291 148.035 190.702C148.035 188.112 147.249 185.748 145.953 184.021C144.657 182.293 142.829 181.178 140.768 181.178C138.706 181.178 136.878 182.293 135.582 184.021C134.287 185.748 133.5 188.112 133.5 190.702C133.5 193.291 134.287 195.655 135.582 197.382C136.878 199.11 138.706 200.225 140.768 200.225Z" fill="#323232" stroke="#323232" stroke-linecap="round"/>
<circle cx="143.616" cy="188.487" r="2.5" fill="#FFEDED" stroke="#323232"/>
<path d="M212.768 200.225C214.829 200.225 216.657 199.11 217.953 197.382C219.249 195.655 220.035 193.291 220.035 190.702C220.035 188.112 219.249 185.748 217.953 184.021C216.657 182.293 214.829 181.178 212.768 181.178C210.706 181.178 208.878 182.293 207.582 184.021C206.287 185.748 205.5 188.112 205.5 190.702C205.5 193.291 206.287 195.655 207.582 197.382C208.878 199.11 210.706 200.225 212.768 200.225Z" fill="#323232" stroke="#323232" stroke-linecap="round"/>
<circle cx="215.616" cy="188.487" r="2" fill="#FFEDED"/>
<path d="M169 217.678C172 221.345 179.8 226.478 187 217.678" stroke="#323232" stroke-width="4" stroke-linecap="round" stroke-linejoin="round"/>
<g filter="url(#filter0_f_202_312)">
<ellipse cx="136.5" cy="211.5" rx="9.5" ry="5.5" fill="#FC9D80"/>
</g>
<g filter="url(#filter1_f_202_312)">
<ellipse cx="215.5" cy="211.5" rx="9.5" ry="5.5" fill="#FC9D80"/>
</g>
<path d="M165.609 185.611C174.886 181.905 179.929 181.813 188.609 185.611" stroke="#275546" stroke-width="4" stroke-linecap="round"/>
<path d="M119 180.799L111.109 173.135" stroke="#275546" stroke-width="4"/>
<path d="M233.049 176.439L241.609 172.635" stroke="#275546" stroke-width="4"/>
<path fill-rule="evenodd" clip-rule="evenodd" d="M143.769 163.07L147.355 166.657L117.657 196.355L116.255 194.953C116.093 194.311 115.956 193.658 115.843 192.994C115.509 191.031 115.41 189.081 115.525 187.173L139.657 163.041C141.045 162.942 142.419 162.954 143.769 163.07Z" fill="white" fill-opacity="0.15"/>
<path d="M165.001 184.631C167.189 197.493 158.426 209.749 145.376 211.969C132.326 214.189 120.003 205.521 117.814 192.659C115.626 179.797 124.39 167.541 137.44 165.321C150.49 163.101 162.813 171.769 165.001 184.631Z" fill="url(#paint0_linear_202_312)" fill-opacity="0.3" stroke="#275546" stroke-width="4"/>
<path fill-rule="evenodd" clip-rule="evenodd" d="M238.886 189.612C238.957 187.865 238.848 186.086 238.543 184.296C238.512 184.111 238.478 183.927 238.443 183.744L235.941 181.243L204.78 212.404L205.681 213.305C208.396 214.086 211.273 214.434 214.217 214.28L238.886 189.612Z" fill="white" fill-opacity="0.15"/>
<path d="M236.571 184.631C238.759 197.493 229.996 209.749 216.946 211.969C203.896 214.189 191.573 205.521 189.384 192.659C187.196 179.797 195.96 167.541 209.01 165.321C222.06 163.101 234.383 171.769 236.571 184.631Z" fill="url(#paint1_linear_202_312)" fill-opacity="0.3" stroke="#275546" stroke-width="4"/>
<path d="M96.5001 133C93.1412 163.005 109 183.5 112 186C112 186 115.23 159.457 127.787 138.5C166.245 152.347 182.078 152.798 220.5 138.5C227 149.5 235.5 165.5 239.257 186C245.5 183.5 255.398 137.445 252 116C248.602 94.5545 232.142 96.1151 232.142 96.1151C232.142 96.1151 244 85.4708 239.257 74.8266C234.513 64.1823 211.982 74.8266 211.982 74.8266C211.982 74.8266 222.655 59.4515 204.867 54.7208C187.079 49.99 165.734 70.0958 165.734 70.0958C165.734 70.0958 174.035 54.7208 158.619 54.7208C143.203 54.7208 127.787 85.4708 127.787 85.4708C127.787 85.4708 124.115 73.4038 117 80.5C109.885 87.5962 113.557 112.673 113.557 112.673C113.557 112.673 99.859 102.995 96.5001 133Z" fill="#412C19"/>
<path d="M129.981 216.209C122.812 212.301 118.926 207.149 115.019 198.874C114.18 197.096 111.65 197.356 111.389 199.305C108.36 221.914 103.745 297.164 176.5 297.164C248.239 297.164 244.753 222.626 241.739 198.463C241.484 196.424 238.761 196.221 237.926 198.099C234.627 205.524 230.175 210.583 220.922 215.724C217.016 217.894 212.314 217.881 208.133 216.305C183.25 206.925 166.901 206.572 141.898 216.405C138.024 217.928 133.636 218.202 129.981 216.209Z" fill="#412C19"/>
<ellipse cx="177.968" cy="233.563" rx="16.634" ry="11.7417" fill="#FFEDED"/>
<path d="M169.162 231.607C172.097 235.194 179.729 240.217 186.774 231.607" stroke="#323232" stroke-width="4" stroke-linecap="round" stroke-linejoin="round"/>
<defs>
<filter id="filter0_f_202_312" x="115" y="194" width="43" height="35" filterUnits="userSpaceOnUse" color-interpolation-filters="sRGB">
<feFlood flood-opacity="0" result="BackgroundImageFix"/>
<feBlend mode="normal" in="SourceGraphic" in2="BackgroundImageFix" result="shape"/>
<feGaussianBlur stdDeviation="6" result="effect1_foregroundBlur_202_312"/>
</filter>
<filter id="filter1_f_202_312" x="194" y="194" width="43" height="35" filterUnits="userSpaceOnUse" color-interpolation-filters="sRGB">
<feFlood flood-opacity="0" result="BackgroundImageFix"/>
<feBlend mode="normal" in="SourceGraphic" in2="BackgroundImageFix" result="shape"/>
<feGaussianBlur stdDeviation="6" result="effect1_foregroundBlur_202_312"/>
</filter>
<linearGradient id="paint0_linear_202_312" x1="137.104" y1="163.349" x2="161.109" y2="212.635" gradientUnits="userSpaceOnUse">
<stop stop-color="white"/>
<stop offset="1" stop-color="#C0C8FE" stop-opacity="0"/>
</linearGradient>
<linearGradient id="paint1_linear_202_312" x1="208.674" y1="163.349" x2="232.679" y2="212.635" gradientUnits="userSpaceOnUse">
<stop stop-color="white"/>
<stop offset="1" stop-color="#C0C8FE" stop-opacity="0"/>
</linearGradient>
</defs>
</svg>
