<svg width="350" height="390" viewBox="0 0 350 390" fill="none" xmlns="http://www.w3.org/2000/svg">
<path d="M298.812 266C305.439 266 310.832 260.626 310.617 254.002C309.796 228.686 306.38 203.755 300.497 180.279C293.688 153.102 283.707 128.408 271.125 107.608C258.542 86.8078 243.605 70.308 227.165 59.051C210.726 47.7939 193.106 42 175.312 42C157.518 42 139.898 47.7939 123.458 59.051C107.018 70.308 92.0811 86.8078 79.4987 107.608C66.9164 128.408 56.9355 153.102 50.126 180.279C44.2439 203.755 40.8276 228.686 40.0062 254.002C39.7913 260.626 45.1843 266 51.8117 266L298.812 266Z" fill="#4D4035"/>
<rect width="72.5" height="132.131" transform="translate(139 183)" fill="#FFEFEA"/>
<rect x="141" y="185" width="68.2139" height="128.131" rx="13.7769" fill="#FFEFEA" stroke="#323232" stroke-width="4" stroke-linecap="round"/>
<path d="M142.896 267.634V226.678H211.5C206.333 247.68 175.523 268.768 142.896 267.634Z" fill="#7E7E7E" fill-opacity="0.45"/>
<path d="M132 182.5C132 194.189 121.45 204 108 204C94.5501 204 84 194.189 84 182.5C84 170.811 94.5501 161 108 161C121.45 161 132 170.811 132 182.5Z" fill="#FFEFEA" stroke="#323232" stroke-width="4"/>
<path d="M219 182.5C219 194.189 229.55 204 243 204C256.45 204 267 194.189 267 182.5C267 170.811 256.45 161 243 161C229.55 161 219 170.811 219 182.5Z" fill="#FFEFEA" stroke="#323232" stroke-width="4"/>
<path d="M242 172.261C242 194.713 236.042 211.834 224.986 223.337C213.941 234.828 197.532 241 176.03 241C154.526 241 137.842 234.827 126.529 223.321C115.211 211.81 109 194.69 109 172.261C109 149.804 115.232 126.379 126.779 108.629C138.311 90.9028 155.009 79 176.03 79C197.043 79 213.472 90.8934 224.74 108.612C236.025 126.358 242 149.787 242 172.261Z" fill="#FFEFEA" stroke="#323232" stroke-width="4" stroke-linecap="round"/>
<path d="M176 171C174.029 177.812 173 181.371 173 188.458C175.64 189.72 178.163 190.036 182.5 190" stroke="#323232" stroke-width="4" stroke-linecap="round" stroke-linejoin="round"/>
<path d="M140.768 182.225C142.829 182.225 144.657 181.11 145.953 179.382C147.249 177.655 148.035 175.291 148.035 172.702C148.035 170.112 147.249 167.748 145.953 166.021C144.657 164.293 142.829 163.178 140.768 163.178C138.706 163.178 136.878 164.293 135.582 166.021C134.287 167.748 133.5 170.112 133.5 172.702C133.5 175.291 134.287 177.655 135.582 179.382C136.878 181.11 138.706 182.225 140.768 182.225Z" fill="#323232" stroke="#323232" stroke-linecap="round"/>
<circle cx="143.616" cy="170.487" r="2.5" fill="white" stroke="#323232"/>
<path d="M212.768 182.225C214.829 182.225 216.657 181.11 217.953 179.382C219.249 177.655 220.035 175.291 220.035 172.702C220.035 170.112 219.249 167.748 217.953 166.021C216.657 164.293 214.829 163.178 212.768 163.178C210.706 163.178 208.878 164.293 207.582 166.021C206.287 167.748 205.5 170.112 205.5 172.702C205.5 175.291 206.287 177.655 207.582 179.382C208.878 181.11 210.706 182.225 212.768 182.225Z" fill="#323232" stroke="#323232" stroke-linecap="round"/>
<circle cx="215.616" cy="170.487" r="2" fill="white"/>
<path d="M168 205.5C171 209.167 178.8 214.3 186 205.5" stroke="#323232" stroke-width="4" stroke-linecap="round" stroke-linejoin="round"/>
<g filter="url(#filter0_f_203_563)">
<ellipse cx="136.5" cy="200.5" rx="9.5" ry="5.5" fill="#FC9D80"/>
</g>
<g filter="url(#filter1_f_203_563)">
<ellipse cx="215.5" cy="200.5" rx="9.5" ry="5.5" fill="#FC9D80"/>
</g>
<path d="M192 106C170.149 148.401 152.136 157.762 105 162C95.5001 97.5 110.661 83.8036 181.5 73C239.144 92.2209 240.619 110.613 242 162C207.433 152.149 204.344 137.803 192 106Z" fill="#4D4035"/>
<path fill-rule="evenodd" clip-rule="evenodd" d="M214.418 83.6601L194.498 56.0642C192.759 53.6554 189.094 53.9157 187.713 56.5461L169.862 90.5491C168.481 93.1795 170.348 96.3442 173.318 96.4075L207.345 97.1332L227.265 124.729C229.004 127.138 232.669 126.878 234.05 124.247L251.901 90.2442C253.282 87.6138 251.415 84.4492 248.445 84.3858L214.418 83.6601Z" fill="#FC9D80"/>
<path d="M141.637 277.566C157.781 305.54 196.874 303.35 209.064 277.821C209.396 277.127 210.144 276.922 210.623 277.139C237.582 289.357 255.284 302.353 267.373 319.321C279.476 336.308 286.102 357.482 290.512 386.356C290.604 386.958 290.132 387.5 289.538 387.5H59.4712C58.8781 387.5 58.4054 386.956 58.5001 386.354C63.2635 356.036 71.0978 334.611 83.931 317.851C96.765 301.091 114.747 288.803 140.18 277.032C140.637 276.82 141.303 276.988 141.637 277.566Z" fill="#8F4933" stroke="#5D1B1B" stroke-width="4" stroke-linecap="round" stroke-linejoin="round"/>
<path d="M141.5 278C145.893 320.359 146.947 345.359 142 386.5" stroke="#5D1B1B" stroke-width="4"/>
<path d="M210.776 278.5C206.384 320.859 205.329 345.859 210.276 387" stroke="#5D1B1B" stroke-width="4"/>
<path fill-rule="evenodd" clip-rule="evenodd" d="M247.966 330.402C246.246 325.199 238.754 325.199 237.034 330.402L236.371 332.407C235.601 334.734 233.394 336.309 230.905 336.309H228.758C223.191 336.309 220.876 343.309 225.38 346.524L227.116 347.764C229.131 349.202 229.974 351.751 229.204 354.077L228.541 356.083C226.821 361.285 232.881 365.611 237.386 362.396L239.122 361.157C241.136 359.719 243.864 359.719 245.878 361.157L247.614 362.396C252.119 365.611 258.179 361.285 256.459 356.083L255.796 354.077C255.026 351.751 255.869 349.202 257.884 347.764L259.62 346.524C264.124 343.309 261.809 336.309 256.242 336.309H254.095C251.606 336.309 249.399 334.734 248.629 332.407L247.966 330.402ZM242.5 351.99C245.674 351.99 248.247 349.461 248.247 346.343C248.247 343.224 245.674 340.696 242.5 340.696C239.326 340.696 236.753 343.224 236.753 346.343C236.753 349.461 239.326 351.99 242.5 351.99Z" fill="#FC9D80"/>
<defs>
<filter id="filter0_f_203_563" x="115" y="183" width="43" height="35" filterUnits="userSpaceOnUse" color-interpolation-filters="sRGB">
<feFlood flood-opacity="0" result="BackgroundImageFix"/>
<feBlend mode="normal" in="SourceGraphic" in2="BackgroundImageFix" result="shape"/>
<feGaussianBlur stdDeviation="6" result="effect1_foregroundBlur_203_563"/>
</filter>
<filter id="filter1_f_203_563" x="194" y="183" width="43" height="35" filterUnits="userSpaceOnUse" color-interpolation-filters="sRGB">
<feFlood flood-opacity="0" result="BackgroundImageFix"/>
<feBlend mode="normal" in="SourceGraphic" in2="BackgroundImageFix" result="shape"/>
<feGaussianBlur stdDeviation="6" result="effect1_foregroundBlur_203_563"/>
</filter>
</defs>
</svg>
